<svg xmlns="http://www.w3.org/2000/svg" width="67" height="75.016" viewBox="0 0 67 75.016">
  <g id="logo_cat_copie_2" data-name="logo cat copie 2" transform="translate(1.5 1.508)">
    <path id="Polygone_771" data-name="Polygone 771" d="M490.5,1567.37c0,1.568-.646,2.208-2,2.993l-28,15.96a3.7,3.7,0,0,1-4,0l-28-15.96c-1.354-.784-2-1.424-2-2.993v-32.918c0-1.568.646-2.208,2-2.993l28-15.96a3.7,3.7,0,0,1,4,0l28,15.96c1.354.784,2,1.424,2,2.993Z" transform="translate(-426.5 -1514.911)" fill="#e0ffe2" stroke="#48cf52" stroke-width="3"/>
    <g id="XMLID_481_" transform="translate(-44.5 -164.406)">
      <path id="XMLID_482_" d="M12.264,41.383q.947.827,1.953,1.71l.014.012,2.23,1.917a1.6,1.6,0,0,0,2.081,0l2.229-1.917.014-.012A93.835,93.835,0,0,0,30.9,33.334c2.8-3.388,4.1-6.45,4.1-9.639A10.2,10.2,0,0,0,24.662,13.407,11.134,11.134,0,0,0,17.5,16.076a11.136,11.136,0,0,0-7.162-2.669A10.2,10.2,0,0,0,0,23.695C0,30.668,4.879,34.931,12.264,41.383ZM11.135,26.24h4.243V22.017h4.243V26.24h4.243v4.223H19.622v4.223H15.378V30.463H11.135V26.24Z" transform="translate(59 173)" fill="#48cf52"/>
    </g>
  </g>
</svg>
