<svg xmlns="http://www.w3.org/2000/svg" width="67" height="75.016" viewBox="0 0 67 75.016">
  <g id="logo_cat_copie_3" data-name="logo cat copie 3" transform="translate(1.5 1.508)">
    <path id="Polygone_771" data-name="Polygone 771" d="M1065.5,1567.37c0,1.568-.646,2.208-2,2.993l-28,15.96a3.7,3.7,0,0,1-4,0l-28-15.96c-1.354-.784-2-1.424-2-2.993v-32.918c0-1.568.646-2.208,2-2.993l28-15.96a3.7,3.7,0,0,1,4,0l28,15.96c1.354.784,2,1.424,2,2.993Z" transform="translate(-1001.5 -1514.911)" fill="#ddfffd" stroke="#58cac3" stroke-width="3"/>
    <g id="hospital-buildings" transform="translate(14.499 9.073)">
      <path id="Tracé_156" data-name="Tracé 156" d="M33.042,36.367a1.24,1.24,0,0,0,.064-.393V21.55a1.237,1.237,0,0,0-1.235-1.238H24.994V35.665a2.081,2.081,0,0,1-.123.7h-.807a1.24,1.24,0,0,0,.064-.393V16.164a1.237,1.237,0,0,0-1.235-1.238H12.106a1.236,1.236,0,0,0-1.235,1.238v19.81a1.24,1.24,0,0,0,.064.393h-.806a2.081,2.081,0,0,1-.123-.7V20.312H3.294A1.236,1.236,0,0,0,2.059,21.55V35.974a1.25,1.25,0,0,0,.064.393H0v2.559H35V36.367ZM5.765,31.31H3.994V29.536H5.765Zm0-3.116H3.994V26.42H5.765Zm0-3.013H3.994V23.407H5.765ZM8.524,31.31H6.753V29.536H8.524Zm0-3.116H6.753V26.42H8.524Zm0-3.013H6.753V23.407H8.524Zm11.725,11.1h-5.2v-6.5h5.2ZM17.5,24.212a4.364,4.364,0,1,1,4.355-4.364A4.359,4.359,0,0,1,17.5,24.212Zm11.241,7.1h-1.77V29.536h1.77Zm0-3.116h-1.77V26.42h1.77Zm0-3.013h-1.77V23.407h1.77ZM31.5,31.31H29.73V29.536H31.5Zm0-3.116H29.73V26.42H31.5Zm0-3.013H29.73V23.407H31.5ZM18.58,18.764h1.668v2.166H18.58V22.6H16.419V20.931H14.751V18.764h1.668V17.093H18.58Z" fill="#58cac3"/>
    </g>
  </g>
</svg>
