<svg xmlns="http://www.w3.org/2000/svg" width="67" height="75.017" viewBox="0 0 67 75.017">
  <g id="logo_cat_copie_6" data-name="logo cat copie 6" transform="translate(1.5 1.508)">
    <path id="Polygone_771" data-name="Polygone 771" d="M1065.5,2823.37c0,1.568-.646,2.208-2,2.992l-28,15.96a3.7,3.7,0,0,1-4,0l-28-15.96c-1.354-.784-2-1.425-2-2.992v-32.918c0-1.568.646-2.209,2-2.993l28-15.96a3.7,3.7,0,0,1,4,0l28,15.96c1.354.784,2,1.425,2,2.993Z" transform="translate(-1001.5 -2770.911)" fill="#ffe4de" stroke="#e76449" stroke-width="3"/>
    <g id="mortarboard" transform="translate(14.5 -9.136)">
      <path id="Tracé_163" data-name="Tracé 163" d="M421.981,191.282v-10.67l-2.051.67v10a3.169,3.169,0,0,0-2.2,2.993v5.383a1.015,1.015,0,0,0,1.025,1.005h4.393a1.015,1.015,0,0,0,1.025-1.005v-5.383A3.169,3.169,0,0,0,421.981,191.282Z" transform="translate(-389.178 -138.528)" fill="#e76449"/>
      <path id="Tracé_164" data-name="Tracé 164" d="M106.338,205.281,96.4,202.034v6.846a1,1,0,0,0,.3.711,15.22,15.22,0,0,0,21.22,0,1,1,0,0,0,.3-.711v-6.846l-9.937,3.247A3.136,3.136,0,0,1,106.338,205.281Z" transform="translate(-89.81 -158.515)" fill="#e76449"/>
      <path id="Tracé_165" data-name="Tracé 165" d="M17.5,44.911a1.044,1.044,0,0,0,.324-.052L34.3,39.476a1,1,0,0,0,0-1.907L17.824,32.187a1.046,1.046,0,0,0-.648,0L.7,37.569a1,1,0,0,0,0,1.907l16.475,5.383A1.044,1.044,0,0,0,17.5,44.911Z" fill="#e76449"/>
    </g>
  </g>
</svg>
