<svg xmlns="http://www.w3.org/2000/svg" width="67" height="75.016" viewBox="0 0 67 75.016">
  <g id="logo_cat_copie_5" data-name="logo cat copie 5" transform="translate(1 1.508)">
    <path id="Polygone_771" data-name="Polygone 771" d="M1065.5,2496.37c0,1.568-.646,2.208-2,2.993l-28,15.96a3.7,3.7,0,0,1-4,0l-28-15.96c-1.354-.784-2-1.425-2-2.993v-32.918c0-1.568.646-2.208,2-2.992l28-15.96a3.7,3.7,0,0,1,4,0l28,15.96c1.354.784,2,1.424,2,2.992Z" transform="translate(-1001 -2443.911)" fill="#ffe0eb" stroke="#c81a5a" stroke-width="3"/>
    <g id="group" transform="translate(15.499 -17.841)">
      <g id="Groupe_178" data-name="Groupe 178" transform="translate(26.463 55.036)">
        <g id="Groupe_177" data-name="Groupe 177" transform="translate(0 0)">
          <path id="Tracé_157" data-name="Tracé 157" d="M401.123,273.32h-2.629a7.371,7.371,0,0,1,.414,2.445V286.1a3.158,3.158,0,0,1-.169,1.021h4.347a3.009,3.009,0,0,0,2.945-3.063v-5.635A5.015,5.015,0,0,0,401.123,273.32Z" transform="translate(-398.494 -273.32)" fill="#c81a5a"/>
        </g>
      </g>
      <g id="Groupe_180" data-name="Groupe 180" transform="translate(0 55.036)">
        <g id="Groupe_179" data-name="Groupe 179" transform="translate(0 0)">
          <path id="Tracé_158" data-name="Tracé 158" d="M7.123,275.766a7.371,7.371,0,0,1,.414-2.445H4.908A5.015,5.015,0,0,0,0,278.426v5.635a3.009,3.009,0,0,0,2.945,3.063H7.292a3.159,3.159,0,0,1-.169-1.021Z" transform="translate(0 -273.321)" fill="#c81a5a"/>
        </g>
      </g>
      <g id="Groupe_182" data-name="Groupe 182" transform="translate(9.086 52.377)">
        <g id="Groupe_181" data-name="Groupe 181" transform="translate(0 0)">
          <path id="Tracé_159" data-name="Tracé 159" d="M147.748,234.815h-6.011a5.015,5.015,0,0,0-4.908,5.105v10.337a1,1,0,0,0,.982,1.021h13.864a1,1,0,0,0,.982-1.021V239.92A5.015,5.015,0,0,0,147.748,234.815Z" transform="translate(-136.829 -234.815)" fill="#c81a5a"/>
        </g>
      </g>
      <g id="Groupe_184" data-name="Groupe 184" transform="translate(11.097 38.84)">
        <g id="Groupe_183" data-name="Groupe 183" transform="translate(0 0)">
          <path id="Tracé_160" data-name="Tracé 160" d="M173.017,38.84a6.031,6.031,0,0,0-5.9,6.14,6.188,6.188,0,0,0,3.018,5.355,5.694,5.694,0,0,0,5.769,0,6.188,6.188,0,0,0,3.018-5.355A6.032,6.032,0,0,0,173.017,38.84Z" transform="translate(-167.114 -38.84)" fill="#c81a5a"/>
        </g>
      </g>
      <g id="Groupe_186" data-name="Groupe 186" transform="translate(2.221 44.563)">
        <g id="Groupe_185" data-name="Groupe 185" transform="translate(0 0)">
          <path id="Tracé_161" data-name="Tracé 161" d="M37.857,121.689a4.6,4.6,0,0,0,0,9.183,4.244,4.244,0,0,0,1.74-.372,4.514,4.514,0,0,0,2.156-2.063,4.709,4.709,0,0,0,.519-2.157A4.511,4.511,0,0,0,37.857,121.689Z" transform="translate(-33.443 -121.689)" fill="#c81a5a"/>
        </g>
      </g>
      <g id="Groupe_188" data-name="Groupe 188" transform="translate(22.95 44.563)">
        <g id="Groupe_187" data-name="Groupe 187" transform="translate(0 0)">
          <path id="Tracé_162" data-name="Tracé 162" d="M350.021,121.689a4.511,4.511,0,0,0-4.414,4.592,4.708,4.708,0,0,0,.519,2.157,4.513,4.513,0,0,0,2.156,2.063,4.244,4.244,0,0,0,1.74.372,4.6,4.6,0,0,0,0-9.183Z" transform="translate(-345.607 -121.689)" fill="#c81a5a"/>
        </g>
      </g>
    </g>
  </g>
</svg>
