<svg xmlns="http://www.w3.org/2000/svg" width="67" height="75.016" viewBox="0 0 67 75.016">
  <g id="logo_cat_copie" data-name="logo cat copie" transform="translate(-425 -787.402)">
    <path id="Polygone_771" data-name="Polygone 771" d="M490.5,841.37c0,1.568-.646,2.208-2,2.993l-28,15.96a3.7,3.7,0,0,1-4,0l-28-15.96c-1.354-.784-2-1.424-2-2.993V808.451c0-1.568.646-2.208,2-2.993l28-15.96a3.7,3.7,0,0,1,4,0l28,15.96c1.354.784,2,1.425,2,2.993Z" fill="#fff5ed" stroke="#fc9f5b" stroke-width="3"/>
    <g id="aider-les-personnes-agees" transform="translate(442.999 807.954)">
      <path id="Tracé_140" data-name="Tracé 140" d="M66.982,16.014a3.649,3.649,0,1,0-2.2-2.6A3.654,3.654,0,0,0,66.982,16.014Z" transform="translate(-61.376 -8.297)" fill="#fc9f5b"/>
      <path id="Tracé_141" data-name="Tracé 141" d="M52.28,119.958a18.188,18.188,0,0,1-3.683-10.48,7.737,7.737,0,0,0-.166-1.347c-.829-4.024-2.015-10.069-2.2-11.058-.354-1.9-1.919-2.018-3.127-1.742a3.211,3.211,0,0,0-2.549,2.535c-1.213,4.006-5.619,5.43-5.959,5.713a7.878,7.878,0,0,0-3.7-6.344,6.922,6.922,0,0,0-6.225-.012c-4.072,2.349-3.736,8.108-3.709,8.538.02.31.061.619.095.927a1.083,1.083,0,0,0,2.16-.127v-.052c0-.258-.013-.517,0-.775.014-.38.037-.757.069-1.136a8.632,8.632,0,0,1,.2-1.162,8.907,8.907,0,0,1,.805-1.968c.057-.1.161-.119.136.05s-.209,20.162-.209,20.162c.031.62.4,1.15,1.619,1.15a1.381,1.381,0,0,0,1.541-1.23c0-.347-.007-8.436-.007-8.819s.758-.53.758.012.067,8.81.067,8.81c.031.62.52,1.236,1.592,1.236a1.24,1.24,0,0,0,1.429-1.322c0-1.169.017-19.67-.034-19.858s.076-.214.133-.113l.1.167.093.177a6.216,6.216,0,0,1,.557,1.548,8.731,8.731,0,0,1,.2,1.162c.031.379.055.756.068,1.136.01.258,0,.884,0,.91a1.419,1.419,0,0,0-.368,1.591.562.562,0,0,0,1-.162.893.893,0,0,0,.025-.209.823.823,0,0,1,.064-.273,1.089,1.089,0,0,0,1.22-.362.824.824,0,0,1,.364.683v14.144a.562.562,0,0,0,1.124,0V107.912a1.952,1.952,0,0,0-1.207-1.8c-.078-.033-.068-.2.016-.183a2.621,2.621,0,0,0,.977.173c2.869-.376,4.741-2.547,5.828-3.606.122-.119.339-.393.446.059.07.3.519,2.864.882,4.568a.767.767,0,0,1-.326.916c-1.879,1.524-3.1,4.18-4.016,7.771a31.754,31.754,0,0,0-.876,5.248,1.743,1.743,0,0,0,1.626,1.852q.058,0,.116,0a1.745,1.745,0,0,0,1.739-1.629c.142-2.137,1.4-7.954,3.79-10.563.408-.445.576.03.6.277a21.344,21.344,0,0,0,4.4,11.137,1.668,1.668,0,1,0,2.529-2.176Z" transform="translate(-20.946 -87.998)" fill="#fc9f5b"/>
      <path id="Tracé_142" data-name="Tracé 142" d="M230.648,7.035a3.649,3.649,0,1,0,2.06-6.968,3.65,3.65,0,0,0-4.264,4.372A3.681,3.681,0,0,0,230.648,7.035Z" transform="translate(-212.633)" fill="#fc9f5b"/>
    </g>
  </g>
</svg>
