<svg xmlns="http://www.w3.org/2000/svg" width="67" height="75.016" viewBox="0 0 67 75.016">
  <g id="logo_cat_copie_4" data-name="logo cat copie 4" transform="translate(1.5 1.508)">
    <path id="Polygone_771" data-name="Polygone 771" d="M490.5,2496.37c0,1.568-.646,2.208-2,2.993l-28,15.96a3.7,3.7,0,0,1-4,0l-28-15.96c-1.354-.784-2-1.425-2-2.993v-32.918c0-1.568.646-2.208,2-2.992l28-15.96a3.7,3.7,0,0,1,4,0l28,15.96c1.354.784,2,1.424,2,2.992Z" transform="translate(-426.5 -2443.911)" fill="#dbddff" stroke="#4d53bf" stroke-width="3"/>
    <g id="XMLID_28_" transform="translate(-30.382 17.011)">
      <path id="XMLID_31_" d="M180.485,7.292a3.646,3.646,0,1,0-3.662-3.646A3.655,3.655,0,0,0,180.485,7.292Z" transform="translate(-119.667)" fill="#4d53bf"/>
      <path id="XMLID_30_" d="M66.477,211.6A8.088,8.088,0,1,1,55.443,202V198.58a11.277,11.277,0,1,0,13.527,15.51l-1.278-2.5Z" transform="translate(0 -183.645)" fill="#4d53bf"/>
      <path id="XMLID_29_" d="M202.164,140.756l-4.9-9.6a2.148,2.148,0,0,0-1.916-1.171h-6.282v-1.426h5.406a1.586,1.586,0,0,0,1.287-.686,1.563,1.563,0,0,0,.326-.92,1.609,1.609,0,0,0-1.613-1.606h-5.406v-4.838a3.225,3.225,0,0,0-6.449,0v10.482a3.283,3.283,0,0,0,3.29,3.276h8.123l4.307,8.432a2.148,2.148,0,0,0,3.832-1.941Z" transform="translate(-125.019 -108.475)" fill="#4d53bf"/>
    </g>
  </g>
</svg>
